<?xml version="1.0" encoding="UTF-8"?>
<svg id="Layer_2" xmlns="http://www.w3.org/2000/svg" xmlns:xlink="http://www.w3.org/1999/xlink" viewBox="0 0 239.27 268.7">
  <defs>
    <style>
      .cls-1 {
        stroke: #bababa;
      }

      .cls-1, .cls-2, .cls-3, .cls-4 {
        fill: none;
      }

      .cls-1, .cls-5 {
        stroke-width: 5px;
      }

      .cls-1, .cls-5, .cls-3, .cls-4 {
        stroke-miterlimit: 10;
      }

      .cls-6 {
        fill: url(#linear-gradient-2);
      }

      .cls-2 {
        stroke: #ffd6c0;
        stroke-linejoin: round;
        stroke-width: 3px;
      }

      .cls-2, .cls-5, .cls-3, .cls-4 {
        stroke-linecap: round;
      }

      .cls-7 {
        fill: #efefef;
      }

      .cls-5 {
        fill: aqua;
        stroke: #fff;
      }

      .cls-8 {
        fill: url(#linear-gradient);
      }

      .cls-9 {
        fill: #b5ff92;
      }

      .cls-10 {
        fill: #fc2779;
      }

      .cls-11 {
        fill: #fc2d5b;
      }

      .cls-12 {
        fill: #a50004;
      }

      .cls-13 {
        fill: #fff;
      }

      .cls-14 {
        fill: #990004;
      }

      .cls-15 {
        fill: #fcab79;
      }

      .cls-16 {
        opacity: .2;
      }

      .cls-17 {
        fill: #f2f2f2;
      }

      .cls-3 {
        stroke: #fc4f70;
        stroke-width: 2px;
      }

      .cls-18 {
        fill: #9da19f;
      }

      .cls-4 {
        stroke: #000;
        stroke-width: 4px;
      }
    </style>
    <linearGradient id="linear-gradient" x1="58.84" y1="256.9" x2="182.89" y2="66.68" gradientUnits="userSpaceOnUse">
      <stop offset="0" stop-color="#00a99d"/>
      <stop offset="1" stop-color="#0071bc"/>
    </linearGradient>
    <linearGradient id="linear-gradient-2" x1="77.71" y1="50.93" x2="78.69" y2="126.84" gradientUnits="userSpaceOnUse">
      <stop offset=".1" stop-color="#2a272c"/>
      <stop offset=".16" stop-color="#2d2a2f"/>
      <stop offset=".22" stop-color="#38363a"/>
      <stop offset=".27" stop-color="#4a494c"/>
      <stop offset=".32" stop-color="#636465"/>
      <stop offset=".37" stop-color="#848685"/>
      <stop offset=".42" stop-color="#a5a9a6"/>
    </linearGradient>
  </defs>
  <g id="STUDENT_LAYER">
    <g>
      <path class="cls-8" d="M238.47,178.91c-2.93,25.49-28.06,41.61-41,50.41-2.7,1.83-4.87,3.35-6.2,4.56l-.36.33c-3.08,2.81-6.1,5.44-9.06,7.89-.69.58-1.38,1.14-2.06,1.69-26.31,21.22-48.95,28.59-76.17,23.22-7.26-1.43-15.59-3.95-19.2-5.03-8.18-2.47-37.77-11.4-53.56-22.71C1.98,218.59-7.62,170.72,6.27,134.7c10.22-26.52,30.79-40.43,53.26-55.62,27.38-18.51,53.83-36.39,86.23-31.12,37.19,6.05,61.06,36.95,76,59.59,12.06,18.28,20.14,41.5,16.71,71.36Z"/>
      <path class="cls-16" d="M198.04,227.55l-.57,1.77c-2.7,1.83-4.87,3.35-6.2,4.56l-.36.33c-3.08,2.81-6.1,5.44-9.06,7.89-11.85,1.5-24.83,2.39-43.34.89-30.96-2.51-33.86-13.21-33.86-13.21,0,0-42.15,9.94-65.82-2.52-23.66-12.46,0-21,0-21l111.11,4.79,48.1,16.5Z"/>
      <g>
        <ellipse class="cls-6" cx="77.94" cy="68.74" rx="52.25" ry="6.46"/>
        <path class="cls-17" d="M119.06,212.23c-.23,2.29-1.84,4.21-4.06,4.83-9.51,2.65-22.26,5.14-37.39,5.22-15.78.09-29.05-2.47-38.83-5.19-2.3-.64-3.95-2.63-4.15-5.01l-11.95-140.48c14.21,3.55,33.4,6.87,56.19,6.7,21.94-.16,40.46-3.51,54.33-7.07-4.71,47-9.42,94-14.14,141Z"/>
        <ellipse class="cls-1" cx="77.94" cy="68.81" rx="54.3" ry="8.68"/>
        <g>
          <path class="cls-7" d="M62.63,74.57c-2.74-.17-5.62-.37-8.06-.55-.99-.07-1.92-.15-2.73-.21l-2.17-7.69-1.45-5.14-2.55-8.99-1.45-5.15-2.55-8.99-1.45-5.14-1.73-6.1-2.81-1.65-4.81-2.82-8.42-4.93-4.81-2.81-9.59-5.62L13.2,0l6.59,3.87,4.81,2.81,8.41,4.93,4.81,2.82,8.97,5.26.38.21.14.53,2.25,7.91,1.45,5.15,2.54,8.99,1.45,5.14,2.55,9,1.45,5.14,2.55,9,1.08,3.81Z"/>
          <path class="cls-10" d="M62.63,74.57c-2.74-.17-5.62-.37-8.06-.55l6.98-3.26,1.08,3.81Z"/>
          <polygon class="cls-10" points="59 61.76 49.68 66.12 48.22 60.98 57.55 56.62 59 61.76"/>
          <polygon class="cls-10" points="55.01 47.62 45.67 51.99 44.22 46.84 53.56 42.48 55.01 47.62"/>
          <polygon class="cls-10" points="51.01 33.49 41.67 37.85 40.22 32.71 49.56 28.34 51.01 33.49"/>
          <polygon class="cls-10" points="37.82 14.43 35.68 24.96 30.87 22.14 33.01 11.61 37.82 14.43"/>
          <polygon class="cls-10" points="24.61 6.68 22.46 17.21 17.65 14.4 19.8 3.87 24.61 6.68"/>
        </g>
        <path class="cls-18" d="M58.02,58.25l1.39,4.92s1.39-.12,2.86-.16c-.08-.78-.24-1.71-.54-2.73-.25-.86-.56-1.6-.85-2.22-.36.02-.71.04-2.85.19Z"/>
        <line class="cls-5" x1="33.99" y1="94.23" x2="36.46" y2="116.71"/>
        <circle class="cls-13" cx="32.65" cy="85.41" r="2.58"/>
        <g>
          <path d="M66.9,160.1c-2.31,0-4.18,1.87-4.18,4.18s1.87,4.18,4.18,4.18,4.18-1.87,4.18-4.18-1.87-4.18-4.18-4.18ZM65.68,164.28c-.67,0-1.21-.54-1.21-1.21s.54-1.21,1.21-1.21,1.22.54,1.22,1.21-.55,1.21-1.22,1.21Z"/>
          <path d="M88.97,160.1c-2.31,0-4.18,1.87-4.18,4.18s1.87,4.18,4.18,4.18,4.18-1.87,4.18-4.18-1.87-4.18-4.18-4.18ZM87.75,164.28c-.67,0-1.21-.54-1.21-1.21s.54-1.21,1.21-1.21,1.22.54,1.22,1.21-.55,1.21-1.22,1.21Z"/>
          <path class="cls-4" d="M64.18,180.02c1.25,1.37,5.99,6.22,13.19,6.42,7.57.21,12.64-4.85,13.86-6.14"/>
        </g>
      </g>
      <g>
        <path class="cls-15" d="M214.9,229.27c-14.44,1.34-29.72,2.96-46.7,2.98-17.42.02-33.53-1.31-48.28-2.68-.81,0-5.04-.2-8.47-3.63-2.17-2.18-3.61-4.61-3.61-7.91v-1.33c.94-6.62,5.4-12,12-12h95.59c6.6,0,10.91,6.54,12,12v1.33c0,6.6-5.93,11.24-12.53,11.24Z"/>
        <path class="cls-12" d="M209.06,203.6h-82.43c-3.36,0-6.12-3.21-6.12-7.14-.24-1.97-.42-4.26-.42-6.81,0-2.59.17-4.92.42-6.92,0-.48.05-3,1.8-5.04,1.11-1.29,2.64-2.1,4.32-2.1h82.43c3.36,0,6.12,3.21,6.12,7.14.29,1.84.53,4.06.54,6.59.02,2.76-.23,5.18-.54,7.13,0,.48-.05,3-6.12,7.14Z"/>
        <path class="cls-14" d="M215.16,182.3c-12.74,1.51-30.49,3.1-46.17,3.13-16.19.03-34.15-1.03-47.23-2.58-2.05,0-.96-1.75-.96-3.8s2.09-3.66,4.15-3.66c13.06,1.35,27.53,2.23,43.21,2.23,15.83,0,31.62-1.15,44.79-2.51,2.05,0,1.77,1.92,1.81,3.98.07,3,.37,2.88.4,3.22Z"/>
        <line class="cls-3" x1="119.63" y1="200.66" x2="119.63" y2="203.6"/>
        <path class="cls-9" d="M117.65,202.13c-.16,0-.32.01-.48.05-1.22.25-6.31,1.63-5.07,6.93.89,3.82,4.23,3.78,6.54,3.25,1.16-.27,2.32.35,2.81,1.44.52,1.17,1.59,2.31,3.76,1.97,4.19-.65,6.54-.36,12.56-4.17,5.32-3.37,9.89-.05,11.12,1,.25.21.53.37.84.47,1.88.62,8.44,2.52,11.76.38,3.33-2.14,11.69,1.12,14.22,1.57.85.15.93.19,1.4.09,2.52-.55,4.18-1.08,7.14-2.68,2.47-1.33,5.48-1.45,7.91-.05,1.34.77,3.17,1.43,5.61,1.62,3.97.32,7.58-1.35,9.95-2.84,1.57-.99,3.6-1.02,5.13.04,1.51,1.04,3.79,1.94,6.87,1.41,5-.86,4.34-4.21,3.91-5.45-.1-.28-.24-.53-.43-.76l-2.74-3.34c-.47-.58-1.18-.91-1.93-.91h-100.89Z"/>
        <path class="cls-11" d="M217.04,206.02c-15.61,1.01-32.21,1.61-49.69,1.61-17.42,0-33.97-.6-49.54-1.61-.09,0-.58-.01-.97-.41-.25-.25-.4-.6-.4-.98v-5.19c0-.77.62-1.39,1.37-1.39,15.77.82,32.3,1.28,49.54,1.28,17.29,0,33.88-.47,49.69-1.28.09,0,.58.01.97.41.25.25.4.6.4.98v5.19c0,.77-.62,1.39-1.37,1.39Z"/>
        <path class="cls-15" d="M214.61,179.47h-94.62c-5.92,0-10.76-4.84-10.76-10.76v-2.83c.15-1.9.84-7.28,5.06-12.17,7.64-8.71,37.07-13.19,54.06-13.06,17.74.13,43.16,4.54,52.71,12.47,2.57,2.84,3.73,6.24,4.07,7.27.45,1.36.69,2.55.82,3.41-.14,1.58.17,2.86.03,4.44,0,6.01-5.37,11.22-11.38,11.22Z"/>
        <g>
          <path d="M157.91,148.69c-1.99,0-3.61,1.61-3.61,3.61s1.61,3.61,3.61,3.61,3.61-1.61,3.61-3.61-1.61-3.61-3.61-3.61ZM156.86,152.3c-.58,0-1.04-.47-1.04-1.04s.47-1.04,1.04-1.04,1.05.47,1.05,1.04-.47,1.04-1.05,1.04Z"/>
          <path d="M176.95,148.69c-1.99,0-3.61,1.61-3.61,3.61s1.61,3.61,3.61,3.61,3.61-1.61,3.61-3.61-1.61-3.61-3.61-3.61ZM175.89,152.3c-.58,0-1.04-.47-1.04-1.04s.47-1.04,1.04-1.04,1.05.47,1.05,1.04-.47,1.04-1.05,1.04Z"/>
          <path class="cls-4" d="M155.56,165.88c1.08,1.18,5.16,5.36,11.37,5.54,6.53.18,10.9-4.19,11.95-5.3"/>
        </g>
        <path class="cls-2" d="M116.12,164.05s-.48-9.73,10.06-12.37"/>
      </g>
    </g>
  </g>
</svg>